# xmcd
#
# Track frame offsets:
#	150
#	27743
#	40388
#	80521
#	104214
#	124967
#	151630
#	178443
#	204873
#	216918
#	243641
#	272149
#
# Disc length: 4103 seconds
#
# Revision: 1
# Processed by: cddbd v1.5.2PL0 Copyright (c) Steve Scherf et al.
# Submitted via: audiograbber 1.83.01
#
DISCID=b710050c
DTITLE=Jimmy Thackery And The Drivers - Feel the heat
DYEAR=2010
DGENRE=Blues
TTITLE0=Feel the heat
TTITLE1=Ain't gonna do it
TTITLE2=Blind man in the night
TTITLE3=Hang up
TTITLE4=Please accept my love
TTITLE5=Take my blues
TTITLE6=Bluphoria
TTITLE7=I'll be your driver
TTITLE8=Bomb the moon
TTITLE9=I'm gone
TTITLE10=Wannabe
TTITLE11=Fading heart
EXTD=
EXTT0=
EXTT1=
EXTT2=
EXTT3=
EXTT4=
EXTT5=
EXTT6=
EXTT7=
EXTT8=
EXTT9=
EXTT10=
EXTT11=
PLAYORDER=
